# xmcd
#
# Track frame offsets: 
#        150
#        18398
#        32251
#        50747
#        63293
#        76800
#        93915
#        109117
#        127108
#        147273
#        160492
#        183362
#
# Disc length: 2616 seconds
#
# Revision: 1
# Processed by: cddbd v1.5.1PL0 Copyright (c) Steve Scherf et al.
# Submitted via: ExactAudioCopy v0.95b3
#
DISCID=990a360c
DTITLE=Various Artist - Move Closer Vol. 1
DYEAR=2005
DGENRE=Blues
TTITLE0=Phyllis Nelson - Move Closer
TTITLE1=Van Morrison - Brown Eyed Girl
TTITLE2=Bill Withers - Lovely Day
TTITLE3=Aretha Franklin - Walk On By
TTITLE4=Ben E King - Stand By Me
TTITLE5=Cyndi Lauper - True Colors
TTITLE6=Harol Melvin and the Blue Notes - If You Don't Know Me By Now
TTITLE7=Marvin Gaye - Sexual Healing
TTITLE8=Earth Wind and Fire - After The Love Has Gone
TTITLE9=Percy Sledge - When A Man Loves A Woman
TTITLE10=Heatwave - Always And Forever
TTITLE11=Mary Wells - My Guy
EXTD=
EXTT0=
EXTT1=
EXTT2=
EXTT3=
EXTT4=
EXTT5=
EXTT6=
EXTT7=
EXTT8=
EXTT9=
EXTT10=
EXTT11=
PLAYORDER=
